<?xml version="1.0" encoding="UTF-8" standalone="no"?>
<!DOCTYPE svg PUBLIC "-//W3C//DTD SVG 1.1//EN" "http://www.w3.org/Graphics/SVG/1.1/DTD/svg11.dtd">
<svg version="1.1" xmlns="http://www.w3.org/2000/svg" xmlns:xlink="http://www.w3.org/1999/xlink" preserveAspectRatio="xMidYMid meet" viewBox="0 0 308 246" width="308" height="246"><defs><path d="M106.81 192.53L117.8 209.56L49.67 242.53L49.67 220.55L106.81 192.53Z" id="b1ZQMsjHvd"></path><path d="M106.81 192.53L117.8 209.56L49.67 242.53L49.67 220.55L106.81 192.53Z" id="a2VnscHrpa"></path><path d="M168.35 185.38C174.15 182.22 177.78 180.24 179.23 179.45C179.7 179.19 180.26 179.61 180.14 180.13C179.59 182.59 178.23 188.74 176.04 198.57C178.97 197.69 193.62 193.29 220 185.38L168.35 219.45L168.35 242.53L304.62 151.32L263.96 151.32L215.6 167.8L230.99 151.32L195.82 151.32L168.35 163.96L168.35 182.09C168.35 184.06 168.35 185.16 168.35 185.38Z" id="dyp44KfHi"></path><path d="M168.35 185.38C174.15 182.22 177.78 180.24 179.23 179.45C179.7 179.19 180.26 179.61 180.14 180.13C179.59 182.59 178.23 188.74 176.04 198.57C178.97 197.69 193.62 193.29 220 185.38L168.35 219.45L168.35 242.53L304.62 151.32L263.96 151.32L215.6 167.8L230.99 151.32L195.82 151.32L168.35 163.96L168.35 182.09C168.35 184.06 168.35 185.16 168.35 185.38Z" id="l2Do18tUVM"></path><path d="M130.99 156.81L130.99 4.07L168.35 4.07L168.35 242.53L130.99 242.53L45.27 86.48L47.47 242.53L4.62 242.53L4.62 4.07L45.27 4.07L130.99 156.81Z" id="g3mfBH1M2o"></path><path d="M47.42 242.53L49.67 95.27L4.62 4.07L4.62 242.53L47.42 242.53Z" id="aVkpYTUz1"></path><path d="M129.89 5.71L129.89 156.26L168.35 240.88L168.35 5.71L129.89 5.71Z" id="a1jibfWQR"></path><path d="M129.89 5.71L129.89 156.26L168.35 240.88L168.35 5.71L129.89 5.71Z" id="aSEEzEpSw"></path><linearGradient id="gradientd13Tzur6MZ" gradientUnits="userSpaceOnUse" x1="149.12" y1="240.88" x2="149.12" y2="5.71"><stop style="stop-color: #3e0950;stop-opacity: 1" offset="0%"></stop><stop style="stop-color: #8325a2;stop-opacity: 1" offset="100%"></stop></linearGradient><path d="M49.67 240.88L49.67 91.98L4.62 7.36L4.62 242.53L49.67 240.88Z" id="m47SYjnQAI"></path><linearGradient id="gradientc2o5asz59" gradientUnits="userSpaceOnUse" x1="27.14" y1="7.36" x2="27.14" y2="242.53"><stop style="stop-color: #3e0950;stop-opacity: 1" offset="0%"></stop><stop style="stop-color: #8325a2;stop-opacity: 1" offset="100%"></stop></linearGradient></defs><g><g><g><use xlink:href="#b1ZQMsjHvd" opacity="1" fill="#000000" fill-opacity="1"></use><g><use xlink:href="#b1ZQMsjHvd" opacity="1" fill-opacity="0" stroke="#000000" stroke-width="1" stroke-opacity="0"></use></g></g><g><use xlink:href="#a2VnscHrpa" opacity="1" fill="#000000" fill-opacity="0"></use><g><use xlink:href="#a2VnscHrpa" opacity="1" fill-opacity="0" stroke="#000000" stroke-width="1" stroke-opacity="1"></use></g></g><g><use xlink:href="#dyp44KfHi" opacity="1" fill="#000000" fill-opacity="1"></use><g><use xlink:href="#dyp44KfHi" opacity="1" fill-opacity="0" stroke="#000000" stroke-width="1" stroke-opacity="0"></use></g></g><g><use xlink:href="#l2Do18tUVM" opacity="1" fill="#000000" fill-opacity="0"></use><g><use xlink:href="#l2Do18tUVM" opacity="1" fill-opacity="0" stroke="#000000" stroke-width="1" stroke-opacity="1"></use></g></g><g><use xlink:href="#g3mfBH1M2o" opacity="1" fill="#be00fe" fill-opacity="1"></use><g><use xlink:href="#g3mfBH1M2o" opacity="1" fill-opacity="0" stroke="#000000" stroke-width="1" stroke-opacity="0"></use></g></g><g><use xlink:href="#aVkpYTUz1" opacity="1" fill="#000000" fill-opacity="0"></use><g><use xlink:href="#aVkpYTUz1" opacity="1" fill-opacity="0" stroke="#be00fe" stroke-width="1" stroke-opacity="1"></use></g></g><g><use xlink:href="#a1jibfWQR" opacity="1" fill="#000000" fill-opacity="0"></use><g><use xlink:href="#a1jibfWQR" opacity="1" fill-opacity="0" stroke="#be00fe" stroke-width="1" stroke-opacity="1"></use></g></g><g><use xlink:href="#aSEEzEpSw" opacity="1" fill="url(#gradientd13Tzur6MZ)"></use><g><use xlink:href="#aSEEzEpSw" opacity="1" fill-opacity="0" stroke="#000000" stroke-width="1" stroke-opacity="0"></use></g></g><g><use xlink:href="#m47SYjnQAI" opacity="1" fill="url(#gradientc2o5asz59)"></use><g><use xlink:href="#m47SYjnQAI" opacity="1" fill-opacity="0" stroke="#000000" stroke-width="1" stroke-opacity="0"></use></g></g></g></g></svg>