<?xml version="1.0" encoding="UTF-8" standalone="no"?>
<!DOCTYPE svg PUBLIC "-//W3C//DTD SVG 1.1//EN" "http://www.w3.org/Graphics/SVG/1.1/DTD/svg11.dtd">
<svg version="1.1" xmlns="http://www.w3.org/2000/svg" xmlns:xlink="http://www.w3.org/1999/xlink" preserveAspectRatio="xMidYMid meet" viewBox="0 0 930 243" width="930" height="243"><defs><path d="M130.99 4.07L168.35 4.07L168.35 242.53L130.99 242.53L45.27 86.48L47.47 242.53L4.62 242.53L4.62 4.07L45.27 4.07L130.99 156.81L130.99 4.07Z" id="c8tKLobWy"></path><path d="M130.99 4.07L168.35 4.07L168.35 242.53L130.99 242.53L45.27 86.48L47.47 242.53L4.62 242.53L4.62 4.07L45.27 4.07L130.99 156.81L130.99 4.07Z" id="afqZW2AoX"></path><path d="M168.35 4.07L129.89 4.07L129.89 154.62L46.37 4.07L4.62 4.07L4.62 242.53L49.67 242.53L49.67 96.37L129.89 242.53L168.35 242.53L168.35 4.07Z" id="be62MI7zR"></path><path d="M168.35 4.07L129.89 4.07L129.89 154.62L46.37 4.07L4.62 4.07L4.62 242.53L49.67 242.53L49.67 96.37L129.89 242.53L168.35 242.53L168.35 4.07Z" id="c1dlTSpD6"></path><path d="M359.56 195.28L249.68 198.02L249.68 147.47L317.82 147.47L317.82 103.52L249.68 103.52L249.68 46.37L359.56 46.37L359.56 4.06L209.01 4.06L205.71 239.23L359.56 239.23L359.56 195.28Z" id="b1LOgY7vXq"></path><path d="M49.67 95.27L4.62 4.07L4.62 242.53L47.42 242.53L49.67 95.27Z" id="cS83u9if2"></path><linearGradient id="gradientarSuBEzpK" gradientUnits="userSpaceOnUse" x1="27.14" y1="4.07" x2="27.14" y2="242.53"><stop style="stop-color: #992929;stop-opacity: 1" offset="0%"></stop><stop style="stop-color: #da1111;stop-opacity: 1" offset="100%"></stop></linearGradient><path d="M49.67 95.27L4.62 4.07L4.62 242.53L47.42 242.53L49.67 95.27Z" id="a1U1mxSXIx"></path><path d="M49.67 95.27L4.62 4.07L4.62 242.53L47.42 242.53L49.67 95.27Z" id="i2nADef2RO"></path><path d="M49.67 95.27L4.62 4.07L4.62 242.53L47.42 242.53L49.67 95.27Z" id="b2qOdZJq1t"></path><path d="M129.89 150.55L168.35 235.17L168.35 0L129.89 0L129.89 150.55Z" id="b4CE7X7pCT"></path><linearGradient id="gradienta4cKWlODxm" gradientUnits="userSpaceOnUse" x1="149.12" y1="235.17" x2="149.12" y2="0"><stop style="stop-color: #1f0627;stop-opacity: 1" offset="0%"></stop><stop style="stop-color: #be00fe;stop-opacity: 1" offset="100%"></stop></linearGradient><path d="M469.45 161.21L506.78 240.88L547.44 239.23L490.33 127.7L554.03 4.07L512.86 4.07L469.45 88.68L427.69 4.07L385.9 4.07L447.44 123.3L382.64 239.23L423.84 239.23L469.45 161.21Z" id="aw5MIqzuN"></path><path d="M738.74 4.06L695.27 4.06L695.27 196.92L612.37 196.92L612.37 4.07L566.7 4.06L566.7 239.23L738.74 239.23L738.74 4.06Z" id="eTGSx6ifn"></path><path d="M923.35 100.77L809.95 100.77L809.95 46.7L923.35 46.7L923.35 4.06L760.71 4.06L760.71 146.65L878.08 146.65L878.08 196.92L760.71 195.28L760.71 240.88L925.55 240.88L923.35 100.77Z" id="atPPvLcxr"></path><path d="M382.64 240.88L447.37 121.65L469.45 161.21L424.3 239.23L382.64 240.88Z" id="a9eCGY72z"></path><linearGradient id="gradientb3fTHMBH8" gradientUnits="userSpaceOnUse" x1="457.91" y1="132.63" x2="405.16" y2="239.23"><stop style="stop-color: #350844;stop-opacity: 1" offset="0%"></stop><stop style="stop-color: #be00fe;stop-opacity: 1" offset="100%"></stop></linearGradient><path d="M547.45 12.28L489.7 128.49L469.45 89.21L510.19 12.28L547.45 12.28Z" id="ay4faOtuJ"></path><linearGradient id="gradientacd598tJY" gradientUnits="userSpaceOnUse" x1="479.82" y1="117.78" x2="527.21" y2="13.89"><stop style="stop-color: #3e104d;stop-opacity: 1" offset="0%"></stop><stop style="stop-color: #be00fe;stop-opacity: 1" offset="100%"></stop></linearGradient><path d="M315.6 5.71L249.67 4.07L249.67 45.82L315.6 45.82L315.6 5.71Z" id="aKbvPrs8C"></path><linearGradient id="gradienta6i9Ufl7sn" gradientUnits="userSpaceOnUse" x1="249.67" y1="27.15" x2="305.29" y2="27.15"><stop style="stop-color: #460c59;stop-opacity: 1" offset="0%"></stop><stop style="stop-color: #be00fe;stop-opacity: 1" offset="100%"></stop></linearGradient><path d="M315.6 104.95L249.67 103.22L249.67 147.17L315.6 147.17L315.6 104.95Z" id="jgMBmkKUO"></path><linearGradient id="gradienta3LaweeA6" gradientUnits="userSpaceOnUse" x1="249.67" y1="127.51" x2="305.29" y2="127.51"><stop style="stop-color: #401050;stop-opacity: 1" offset="0%"></stop><stop style="stop-color: #be00fe;stop-opacity: 1" offset="100%"></stop></linearGradient><path d="M315.05 198.57L249.12 196.93L249.12 238.68L315.05 238.68L315.05 198.57Z" id="a2SWnIAQu"></path><linearGradient id="gradienta18CJ0wiLl" gradientUnits="userSpaceOnUse" x1="249.12" y1="220" x2="304.74" y2="220"><stop style="stop-color: #451156;stop-opacity: 1" offset="0%"></stop><stop style="stop-color: #be00fe;stop-opacity: 1" offset="100%"></stop></linearGradient><path d="M611.75 154.7L566.7 152.97L566.7 196.93L611.75 196.93L611.75 154.7Z" id="afw4ONZ1y"></path><linearGradient id="gradienta3rUuMtZjT" gradientUnits="userSpaceOnUse" x1="587.31" y1="189.35" x2="587.31" y2="155.72"><stop style="stop-color: #461157;stop-opacity: 1" offset="0%"></stop><stop style="stop-color: #be00fe;stop-opacity: 1" offset="100%"></stop></linearGradient><path d="M738.74 154.7L695.89 152.97L695.89 196.93L738.74 196.93L738.74 154.7Z" id="ifzOo2kBc"></path><linearGradient id="gradienthZjmaTiQZ" gradientUnits="userSpaceOnUse" x1="715.49" y1="189.35" x2="715.49" y2="155.72"><stop style="stop-color: #4b0c60;stop-opacity: 1" offset="0%"></stop><stop style="stop-color: #be00fe;stop-opacity: 1" offset="100%"></stop></linearGradient><path d="M876.1 5.7L810.16 4.06L810.16 45.81L876.1 45.81L876.1 5.7Z" id="b2lzJ4Mkyr"></path><linearGradient id="gradientehJ13iY7J" gradientUnits="userSpaceOnUse" x1="810.16" y1="27.14" x2="865.79" y2="27.14"><stop style="stop-color: #470e5a;stop-opacity: 1" offset="0%"></stop><stop style="stop-color: #be00fe;stop-opacity: 1" offset="100%"></stop></linearGradient><path d="M815.51 197.48L879.25 197.48L879.25 240.88L813.31 239.23L815.51 197.48Z" id="b1hy1C8Al"></path><linearGradient id="gradientcBJA8xRna" gradientUnits="userSpaceOnUse" x1="879.25" y1="221.46" x2="823.62" y2="221.46"><stop style="stop-color: #471359;stop-opacity: 1" offset="0%"></stop><stop style="stop-color: #be00fe;stop-opacity: 1" offset="100%"></stop></linearGradient><path d="M49.67 100L4.62 7.68L4.62 242.53L49.67 242.53L49.67 100Z" id="b1LpDJ2ZIB"></path><linearGradient id="gradientaUYlDntX4" gradientUnits="userSpaceOnUse" x1="27.14" y1="7.68" x2="27.14" y2="242.53"><stop style="stop-color: #1f0627;stop-opacity: 1" offset="0%"></stop><stop style="stop-color: #be00fe;stop-opacity: 1" offset="100%"></stop></linearGradient></defs><g><g><g><use xlink:href="#c8tKLobWy" opacity="1" fill="#e62429" fill-opacity="1"></use><g><use xlink:href="#c8tKLobWy" opacity="1" fill-opacity="0" stroke="#000000" stroke-width="1" stroke-opacity="0"></use></g></g><g><use xlink:href="#afqZW2AoX" opacity="1" fill="#000000" fill-opacity="0"></use><g><use xlink:href="#afqZW2AoX" opacity="1" fill-opacity="0" stroke="#000000" stroke-width="1" stroke-opacity="0"></use></g></g><g><use xlink:href="#be62MI7zR" opacity="1" fill="#6e09f9" fill-opacity="0"></use><g><use xlink:href="#be62MI7zR" opacity="1" fill-opacity="0" stroke="#000000" stroke-width="1" stroke-opacity="0"></use></g></g><g><use xlink:href="#c1dlTSpD6" opacity="1" fill="#be00fe" fill-opacity="1"></use><g><use xlink:href="#c1dlTSpD6" opacity="1" fill-opacity="0" stroke="#000000" stroke-width="1" stroke-opacity="0"></use></g></g><g><use xlink:href="#b1LOgY7vXq" opacity="1" fill="#be00fe" fill-opacity="1"></use><g><use xlink:href="#b1LOgY7vXq" opacity="1" fill-opacity="0" stroke="#000000" stroke-width="1" stroke-opacity="0"></use></g></g><g><use xlink:href="#cS83u9if2" opacity="1" fill="url(#gradientarSuBEzpK)"></use><g><use xlink:href="#cS83u9if2" opacity="1" fill-opacity="0" stroke="#000000" stroke-width="1" stroke-opacity="0"></use></g></g><g><use xlink:href="#a1U1mxSXIx" opacity="1" fill="#000000" fill-opacity="0"></use><g><use xlink:href="#a1U1mxSXIx" opacity="1" fill-opacity="0" stroke="#000000" stroke-width="1" stroke-opacity="0"></use></g></g><g><use xlink:href="#i2nADef2RO" opacity="1" fill="#000000" fill-opacity="0"></use><g><use xlink:href="#i2nADef2RO" opacity="1" fill-opacity="0" stroke="#000000" stroke-width="1" stroke-opacity="0"></use></g></g><g><use xlink:href="#b2qOdZJq1t" opacity="1" fill="#be00fe" fill-opacity="1"></use><g><use xlink:href="#b2qOdZJq1t" opacity="1" fill-opacity="0" stroke="#be00fe" stroke-width="1" stroke-opacity="1"></use></g></g><g><use xlink:href="#b4CE7X7pCT" opacity="1" fill="url(#gradienta4cKWlODxm)"></use><g><use xlink:href="#b4CE7X7pCT" opacity="1" fill-opacity="0" stroke="#000000" stroke-width="1" stroke-opacity="0"></use></g></g><g><use xlink:href="#aw5MIqzuN" opacity="1" fill="#be00fe" fill-opacity="1"></use><g><use xlink:href="#aw5MIqzuN" opacity="1" fill-opacity="0" stroke="#000000" stroke-width="1" stroke-opacity="0"></use></g></g><g><use xlink:href="#eTGSx6ifn" opacity="1" fill="#be00fe" fill-opacity="1"></use><g><use xlink:href="#eTGSx6ifn" opacity="1" fill-opacity="0" stroke="#000000" stroke-width="1" stroke-opacity="0"></use></g></g><g><use xlink:href="#atPPvLcxr" opacity="1" fill="#be00fe" fill-opacity="1"></use><g><use xlink:href="#atPPvLcxr" opacity="1" fill-opacity="0" stroke="#000000" stroke-width="1" stroke-opacity="0"></use></g></g><g><use xlink:href="#a9eCGY72z" opacity="1" fill="url(#gradientb3fTHMBH8)"></use><g><use xlink:href="#a9eCGY72z" opacity="1" fill-opacity="0" stroke="#000000" stroke-width="1" stroke-opacity="0"></use></g></g><g><use xlink:href="#ay4faOtuJ" opacity="1" fill="url(#gradientacd598tJY)"></use><g><use xlink:href="#ay4faOtuJ" opacity="1" fill-opacity="0" stroke="#000000" stroke-width="1" stroke-opacity="0"></use></g></g><g><use xlink:href="#aKbvPrs8C" opacity="1" fill="url(#gradienta6i9Ufl7sn)"></use><g><use xlink:href="#aKbvPrs8C" opacity="1" fill-opacity="0" stroke="#000000" stroke-width="1" stroke-opacity="0"></use></g></g><g><use xlink:href="#jgMBmkKUO" opacity="1" fill="url(#gradienta3LaweeA6)"></use><g><use xlink:href="#jgMBmkKUO" opacity="1" fill-opacity="0" stroke="#000000" stroke-width="1" stroke-opacity="0"></use></g></g><g><use xlink:href="#a2SWnIAQu" opacity="1" fill="url(#gradienta18CJ0wiLl)"></use><g><use xlink:href="#a2SWnIAQu" opacity="1" fill-opacity="0" stroke="#000000" stroke-width="1" stroke-opacity="0"></use></g></g><g><use xlink:href="#afw4ONZ1y" opacity="1" fill="url(#gradienta3rUuMtZjT)"></use><g><use xlink:href="#afw4ONZ1y" opacity="1" fill-opacity="0" stroke="#000000" stroke-width="1" stroke-opacity="0"></use></g></g><g><use xlink:href="#ifzOo2kBc" opacity="1" fill="url(#gradienthZjmaTiQZ)"></use><g><use xlink:href="#ifzOo2kBc" opacity="1" fill-opacity="0" stroke="#000000" stroke-width="1" stroke-opacity="0"></use></g></g><g><use xlink:href="#b2lzJ4Mkyr" opacity="1" fill="url(#gradientehJ13iY7J)"></use><g><use xlink:href="#b2lzJ4Mkyr" opacity="1" fill-opacity="0" stroke="#000000" stroke-width="1" stroke-opacity="0"></use></g></g><g><use xlink:href="#b1hy1C8Al" opacity="1" fill="url(#gradientcBJA8xRna)"></use><g><use xlink:href="#b1hy1C8Al" opacity="1" fill-opacity="0" stroke="#000000" stroke-width="1" stroke-opacity="0"></use></g></g><g><use xlink:href="#b1LpDJ2ZIB" opacity="1" fill="url(#gradientaUYlDntX4)"></use><g><use xlink:href="#b1LpDJ2ZIB" opacity="1" fill-opacity="0" stroke="#000000" stroke-width="1" stroke-opacity="0"></use></g></g></g></g></svg>